<svg xmlns="http://www.w3.org/2000/svg" width="1316" height="635" viewBox="0 0 1316 635">
  <g id="screensh" transform="translate(-333 -2469)">
    <rect id="Rectangle_149" data-name="Rectangle 149" width="1316" height="635" rx="5" transform="translate(333 2469)" fill="#fff"/>
    <text id="Screenshot" transform="translate(976 2814)" fill="#f5f8ff" font-size="73" font-family="Gilroy-Bold, Gilroy ☞" font-weight="700"><tspan x="-190.165" y="0">Screenshot</tspan></text>
    <rect id="Rectangle_184" data-name="Rectangle 184" width="66" height="55" rx="5" transform="translate(382 2509)" fill="#e8eefc"/>
    <rect id="Rectangle_185" data-name="Rectangle 185" width="237" height="29" rx="5" transform="translate(382 2603)" fill="#f5f8ff"/>
    <rect id="Rectangle_186" data-name="Rectangle 186" width="237" height="29" rx="5" transform="translate(382 2671)" fill="#f5f8ff"/>
    <rect id="Rectangle_187" data-name="Rectangle 187" width="237" height="29" rx="5" transform="translate(382 2729)" fill="#f5f8ff"/>
    <rect id="Rectangle_188" data-name="Rectangle 188" width="237" height="29" rx="5" transform="translate(382 2787)" fill="#f5f8ff"/>
    <rect id="Rectangle_189" data-name="Rectangle 189" width="66" height="55" rx="5" transform="translate(382 2855)" fill="#f5f8ff"/>
    <rect id="Rectangle_190" data-name="Rectangle 190" width="66" height="55" rx="5" transform="translate(468 2855)" fill="#f5f8ff"/>
    <rect id="Rectangle_191" data-name="Rectangle 191" width="66" height="55" rx="5" transform="translate(554 2855)" fill="#f5f8ff"/>
    <rect id="Rectangle_193" data-name="Rectangle 193" width="308" height="29" rx="5" transform="translate(1269 2514)" fill="#f5f8ff"/>
    <rect id="Rectangle_194" data-name="Rectangle 194" width="142" height="12" rx="5" transform="translate(1268 2562)" fill="#f5f8ff"/>
    <rect id="Rectangle_195" data-name="Rectangle 195" width="142" height="12" rx="5" transform="translate(1435 2562)" fill="#f5f8ff"/>
    <rect id="Rectangle_196" data-name="Rectangle 196" width="142" height="12" rx="5" transform="translate(1410 2593)" fill="#f5f8ff"/>
    <rect id="Rectangle_197" data-name="Rectangle 197" width="119" height="12" rx="5" transform="translate(1269 2593)" fill="#f5f8ff"/>
    <rect id="Rectangle_198" data-name="Rectangle 198" width="142" height="12" rx="5" transform="translate(1268 2624)" fill="#f5f8ff"/>
    <rect id="Rectangle_199" data-name="Rectangle 199" width="142" height="12" rx="5" transform="translate(1435 2624)" fill="#f5f8ff"/>
    <rect id="Rectangle_200" data-name="Rectangle 200" width="142" height="12" rx="5" transform="translate(1410 2655)" fill="#f5f8ff"/>
    <rect id="Rectangle_201" data-name="Rectangle 201" width="119" height="12" rx="5" transform="translate(1269 2655)" fill="#f5f8ff"/>
    <rect id="Rectangle_202" data-name="Rectangle 202" width="142" height="12" rx="5" transform="translate(1268 2686)" fill="#f5f8ff"/>
    <rect id="Rectangle_203" data-name="Rectangle 203" width="142" height="12" rx="5" transform="translate(1435 2686)" fill="#f5f8ff"/>
    <rect id="Rectangle_204" data-name="Rectangle 204" width="142" height="12" rx="5" transform="translate(1410 2717)" fill="#f5f8ff"/>
    <rect id="Rectangle_205" data-name="Rectangle 205" width="119" height="12" rx="5" transform="translate(1269 2717)" fill="#f5f8ff"/>
    <rect id="Rectangle_206" data-name="Rectangle 206" width="308" height="29" rx="5" transform="translate(1269 2802)" fill="#f5f8ff"/>
    <rect id="Rectangle_207" data-name="Rectangle 207" width="142" height="12" rx="5" transform="translate(1268 2850)" fill="#f5f8ff"/>
    <rect id="Rectangle_208" data-name="Rectangle 208" width="142" height="12" rx="5" transform="translate(1435 2850)" fill="#f5f8ff"/>
    <rect id="Rectangle_209" data-name="Rectangle 209" width="142" height="12" rx="5" transform="translate(1410 2881)" fill="#f5f8ff"/>
    <rect id="Rectangle_210" data-name="Rectangle 210" width="119" height="12" rx="5" transform="translate(1269 2881)" fill="#f5f8ff"/>
    <rect id="Rectangle_211" data-name="Rectangle 211" width="142" height="12" rx="5" transform="translate(1268 2912)" fill="#f5f8ff"/>
    <rect id="Rectangle_212" data-name="Rectangle 212" width="142" height="12" rx="5" transform="translate(1435 2912)" fill="#f5f8ff"/>
    <rect id="Rectangle_213" data-name="Rectangle 213" width="142" height="12" rx="5" transform="translate(1410 2943)" fill="#f5f8ff"/>
    <rect id="Rectangle_214" data-name="Rectangle 214" width="119" height="12" rx="5" transform="translate(1269 2943)" fill="#f5f8ff"/>
    <rect id="Rectangle_215" data-name="Rectangle 215" width="142" height="12" rx="5" transform="translate(1268 2974)" fill="#f5f8ff"/>
    <rect id="Rectangle_216" data-name="Rectangle 216" width="142" height="12" rx="5" transform="translate(1435 2974)" fill="#f5f8ff"/>
    <rect id="Rectangle_217" data-name="Rectangle 217" width="142" height="12" rx="5" transform="translate(1410 3005)" fill="#f5f8ff"/>
    <rect id="Rectangle_218" data-name="Rectangle 218" width="119" height="12" rx="5" transform="translate(1269 3005)" fill="#f5f8ff"/>
    <rect id="Rectangle_219" data-name="Rectangle 219" width="142" height="12" rx="5" transform="translate(380 2939)" fill="#f5f8ff"/>
    <rect id="Rectangle_220" data-name="Rectangle 220" width="142" height="12" rx="5" transform="translate(477 2939)" fill="#f5f8ff"/>
    <rect id="Rectangle_221" data-name="Rectangle 221" width="142" height="12" rx="5" transform="translate(452 2970)" fill="#f5f8ff"/>
    <rect id="Rectangle_222" data-name="Rectangle 222" width="119" height="12" rx="5" transform="translate(381 2970)" fill="#f5f8ff"/>
    <rect id="Rectangle_223" data-name="Rectangle 223" width="142" height="12" rx="5" transform="translate(380 3001)" fill="#f5f8ff"/>
    <rect id="Rectangle_224" data-name="Rectangle 224" width="142" height="12" rx="5" transform="translate(477 3001)" fill="#f5f8ff"/>
  </g>
</svg>
