<svg xmlns="http://www.w3.org/2000/svg" xmlns:xlink="http://www.w3.org/1999/xlink" width="756" height="542" viewBox="0 0 756 542">
  <defs>
    <linearGradient id="linear-gradient" x1="0.5" x2="0.5" y2="1" gradientUnits="objectBoundingBox">
      <stop offset="0" stop-color="#4686fd"/>
      <stop offset="1" stop-color="#4655fd"/>
    </linearGradient>
    <linearGradient id="linear-gradient-2" x1="0.5" x2="0.5" y2="1" gradientUnits="objectBoundingBox">
      <stop offset="0" stop-color="#25e6fd"/>
      <stop offset="1" stop-color="#6fa7fe"/>
    </linearGradient>
    <filter id="Rectangle_71" x="278" y="67" width="478" height="475" filterUnits="userSpaceOnUse">
      <feOffset dy="22" input="SourceAlpha"/>
      <feGaussianBlur stdDeviation="16.5" result="blur"/>
      <feFlood flood-color="#5e537e" flood-opacity="0.078"/>
      <feComposite operator="in" in2="blur"/>
      <feComposite in="SourceGraphic"/>
    </filter>
    <filter id="Rectangle_72" x="0" y="0" width="478" height="388" filterUnits="userSpaceOnUse">
      <feOffset dy="22" input="SourceAlpha"/>
      <feGaussianBlur stdDeviation="16.5" result="blur-2"/>
      <feFlood flood-color="#5e537e" flood-opacity="0.078"/>
      <feComposite operator="in" in2="blur-2"/>
      <feComposite in="SourceGraphic"/>
    </filter>
  </defs>
  <g id="screen2" transform="translate(-927.5 -3380.5)">
    <circle id="Ellipse_60" data-name="Ellipse 60" cx="100.5" cy="100.5" r="100.5" transform="translate(1456 3663)" fill="url(#linear-gradient)"/>
    <circle id="Ellipse_59" data-name="Ellipse 59" cx="84" cy="84" r="84" transform="translate(1202 3714)" fill="url(#linear-gradient-2)"/>
    <circle id="Ellipse_58" data-name="Ellipse 58" cx="63.5" cy="63.5" r="63.5" transform="translate(1556 3419)" fill="url(#linear-gradient)"/>
    <g transform="matrix(1, 0, 0, 1, 927.5, 3380.5)" filter="url(#Rectangle_71)">
      <rect id="Rectangle_71-2" data-name="Rectangle 71" width="379" height="376" rx="10" transform="translate(327.5 94.5)" fill="#fff"/>
    </g>
    <g id="Ellipse_62" data-name="Ellipse 62" transform="translate(1303 3540)" fill="#4670fd" stroke="#4670fd" stroke-width="1" opacity="0.37">
      <circle cx="6" cy="6" r="6" stroke="none"/>
      <circle cx="6" cy="6" r="5.5" fill="none"/>
    </g>
    <g id="Polygon_1" data-name="Polygon 1" transform="translate(1286 3517.047)" fill="#fff" opacity="0.37">
      <path d="M 19.34930992126465 28.68902206420898 L 12.65069007873535 28.68902206420898 C 9.499899864196777 28.68902206420898 6.728909969329834 26.67567253112793 5.755420207977295 23.67905235290527 L 3.684410095214844 17.30406188964844 C 2.711100101470947 14.30802154541016 3.769370079040527 11.05084133148193 6.317759990692139 9.199001312255859 L 11.73808002471924 5.260251522064209 C 12.98495006561279 4.354191780090332 14.45870018005371 3.875271558761597 16 3.875271558761597 C 17.54129981994629 3.875271558761597 19.01505088806152 4.354191780090332 20.26192092895508 5.260251522064209 L 25.6822395324707 9.19901180267334 C 28.23063087463379 11.05084133148193 29.28890037536621 14.30802154541016 28.31558990478516 17.3040714263916 L 26.24457931518555 23.67904090881348 C 25.27108955383301 26.67567253112793 22.50009918212891 28.68902206420898 19.34930992126465 28.68902206420898 Z" stroke="none"/>
      <path d="M 16 5.625270843505859 C 14.83073043823242 5.625270843505859 13.71272087097168 5.988592147827148 12.76682090759277 6.675941467285156 L 7.346500396728516 10.61470222473145 C 5.413240432739258 12.01954078674316 4.610410690307617 14.49050140380859 5.348779678344727 16.76336288452148 L 7.419790267944336 23.13835144042969 C 8.158300399780273 25.41165161132813 10.26044082641602 26.93902206420898 12.65069007873535 26.93902206420898 L 19.34930992126465 26.93902206420898 C 21.73955917358398 26.93902206420898 23.84169960021973 25.41165161132813 24.58020973205566 23.13835144042969 L 26.65121078491211 16.76337051391602 C 27.38957977294922 14.49050140380859 26.58675956726074 12.01954078674316 24.65349960327148 10.61470222473145 L 19.23318099975586 6.675941467285156 C 18.28728103637695 5.988592147827148 17.16926956176758 5.625270843505859 16 5.625270843505859 M 16 2.125274658203125 C 17.85667037963867 2.125274658203125 19.71334075927734 2.698366165161133 21.2906608581543 3.844551086425781 L 26.71097946166992 7.78331184387207 C 29.86482048034668 10.07511138916016 31.18450927734375 14.13691139221191 29.97995948791504 17.84476089477539 L 27.90896034240723 24.21974182128906 C 26.7042293548584 27.92817115783691 23.24851989746094 30.43902206420898 19.34930992126465 30.43902206420898 L 12.65069007873535 30.43902206420898 C 8.751480102539063 30.43902206420898 5.295770645141602 27.92817115783691 4.091039657592773 24.21974182128906 L 2.020029067993164 17.84476089477539 C 0.81549072265625 14.13691139221191 2.135169982910156 10.07511138916016 5.289020538330078 7.78331184387207 L 10.7093391418457 3.844551086425781 C 12.28665924072266 2.698366165161133 14.14332962036133 2.125274658203125 16 2.125274658203125 Z" stroke="none" fill="#4670fd"/>
    </g>
    <g id="Ellipse_63" data-name="Ellipse 63" transform="translate(1303 3604)" fill="#c77bd3" stroke="#c77bd3" stroke-width="1" opacity="0.37">
      <circle cx="6" cy="6" r="6" stroke="none"/>
      <circle cx="6" cy="6" r="5.5" fill="none"/>
    </g>
    <g id="Polygon_2" data-name="Polygon 2" transform="translate(1286 3581.218)" fill="#fff" opacity="0.37">
      <path d="M 19.34930992126465 28.68902206420898 L 12.65069007873535 28.68902206420898 C 9.499899864196777 28.68902206420898 6.728909969329834 26.67567253112793 5.755420207977295 23.67905235290527 L 3.684410095214844 17.30406188964844 C 2.711100101470947 14.30802154541016 3.769370079040527 11.05084133148193 6.317759990692139 9.199001312255859 L 11.73808002471924 5.260251522064209 C 12.98495006561279 4.354191780090332 14.45870018005371 3.875271558761597 16 3.875271558761597 C 17.54129981994629 3.875271558761597 19.01505088806152 4.354191780090332 20.26192092895508 5.260251522064209 L 25.6822395324707 9.19901180267334 C 28.23063087463379 11.05084133148193 29.28890037536621 14.30802154541016 28.31558990478516 17.3040714263916 L 26.24457931518555 23.67904090881348 C 25.27108955383301 26.67567253112793 22.50009918212891 28.68902206420898 19.34930992126465 28.68902206420898 Z" stroke="none"/>
      <path d="M 16 5.625270843505859 C 14.83073043823242 5.625270843505859 13.71272087097168 5.988592147827148 12.76682090759277 6.675941467285156 L 7.346500396728516 10.61470222473145 C 5.413240432739258 12.01954078674316 4.610410690307617 14.49050140380859 5.348779678344727 16.76336288452148 L 7.419790267944336 23.13835144042969 C 8.158300399780273 25.41165161132813 10.26044082641602 26.93902206420898 12.65069007873535 26.93902206420898 L 19.34930992126465 26.93902206420898 C 21.73955917358398 26.93902206420898 23.84169960021973 25.41165161132813 24.58020973205566 23.13835144042969 L 26.65121078491211 16.76337051391602 C 27.38957977294922 14.49050140380859 26.58675956726074 12.01954078674316 24.65349960327148 10.61470222473145 L 19.23318099975586 6.675941467285156 C 18.28728103637695 5.988592147827148 17.16926956176758 5.625270843505859 16 5.625270843505859 M 16 2.125274658203125 C 17.85667037963867 2.125274658203125 19.71334075927734 2.698366165161133 21.2906608581543 3.844551086425781 L 26.71097946166992 7.78331184387207 C 29.86482048034668 10.07511138916016 31.18450927734375 14.13691139221191 29.97995948791504 17.84476089477539 L 27.90896034240723 24.21974182128906 C 26.7042293548584 27.92817115783691 23.24851989746094 30.43902206420898 19.34930992126465 30.43902206420898 L 12.65069007873535 30.43902206420898 C 8.751480102539063 30.43902206420898 5.295770645141602 27.92817115783691 4.091039657592773 24.21974182128906 L 2.020029067993164 17.84476089477539 C 0.81549072265625 14.13691139221191 2.135169982910156 10.07511138916016 5.289020538330078 7.78331184387207 L 10.7093391418457 3.844551086425781 C 12.28665924072266 2.698366165161133 14.14332962036133 2.125274658203125 16 2.125274658203125 Z" stroke="none" fill="#c77bd3"/>
    </g>
    <g id="Ellipse_64" data-name="Ellipse 64" transform="translate(1303 3668)" fill="#4670fd" stroke="#4670fd" stroke-width="1" opacity="0.37">
      <circle cx="6" cy="6" r="6" stroke="none"/>
      <circle cx="6" cy="6" r="5.5" fill="none"/>
    </g>
    <g id="Polygon_3" data-name="Polygon 3" transform="translate(1286 3645.389)" fill="#fff" opacity="0.37">
      <path d="M 19.34930992126465 28.68902206420898 L 12.65069007873535 28.68902206420898 C 9.499899864196777 28.68902206420898 6.728909969329834 26.67567253112793 5.755420207977295 23.67905235290527 L 3.684410095214844 17.30406188964844 C 2.711100101470947 14.30802154541016 3.769370079040527 11.05084133148193 6.317759990692139 9.199001312255859 L 11.73808002471924 5.260251522064209 C 12.98495006561279 4.354191780090332 14.45870018005371 3.875271558761597 16 3.875271558761597 C 17.54129981994629 3.875271558761597 19.01505088806152 4.354191780090332 20.26192092895508 5.260251522064209 L 25.6822395324707 9.19901180267334 C 28.23063087463379 11.05084133148193 29.28890037536621 14.30802154541016 28.31558990478516 17.3040714263916 L 26.24457931518555 23.67904090881348 C 25.27108955383301 26.67567253112793 22.50009918212891 28.68902206420898 19.34930992126465 28.68902206420898 Z" stroke="none"/>
      <path d="M 16 5.625270843505859 C 14.83073043823242 5.625270843505859 13.71272087097168 5.988592147827148 12.76682090759277 6.675941467285156 L 7.346500396728516 10.61470222473145 C 5.413240432739258 12.01954078674316 4.610410690307617 14.49050140380859 5.348779678344727 16.76336288452148 L 7.419790267944336 23.13835144042969 C 8.158300399780273 25.41165161132813 10.26044082641602 26.93902206420898 12.65069007873535 26.93902206420898 L 19.34930992126465 26.93902206420898 C 21.73955917358398 26.93902206420898 23.84169960021973 25.41165161132813 24.58020973205566 23.13835144042969 L 26.65121078491211 16.76337051391602 C 27.38957977294922 14.49050140380859 26.58675956726074 12.01954078674316 24.65349960327148 10.61470222473145 L 19.23318099975586 6.675941467285156 C 18.28728103637695 5.988592147827148 17.16926956176758 5.625270843505859 16 5.625270843505859 M 16 2.125274658203125 C 17.85667037963867 2.125274658203125 19.71334075927734 2.698366165161133 21.2906608581543 3.844551086425781 L 26.71097946166992 7.78331184387207 C 29.86482048034668 10.07511138916016 31.18450927734375 14.13691139221191 29.97995948791504 17.84476089477539 L 27.90896034240723 24.21974182128906 C 26.7042293548584 27.92817115783691 23.24851989746094 30.43902206420898 19.34930992126465 30.43902206420898 L 12.65069007873535 30.43902206420898 C 8.751480102539063 30.43902206420898 5.295770645141602 27.92817115783691 4.091039657592773 24.21974182128906 L 2.020029067993164 17.84476089477539 C 0.81549072265625 14.13691139221191 2.135169982910156 10.07511138916016 5.289020538330078 7.78331184387207 L 10.7093391418457 3.844551086425781 C 12.28665924072266 2.698366165161133 14.14332962036133 2.125274658203125 16 2.125274658203125 Z" stroke="none" fill="#4670fd"/>
    </g>
    <rect id="Rectangle_233" data-name="Rectangle 233" width="268" height="14" rx="7" transform="translate(1329 3518)" fill="#5e537e"/>
    <rect id="Rectangle_235" data-name="Rectangle 235" width="217" height="14" rx="7" transform="translate(1329 3579)" fill="#5e537e"/>
    <rect id="Rectangle_237" data-name="Rectangle 237" width="240" height="14" rx="7" transform="translate(1329 3645)" fill="#5e537e"/>
    <rect id="Rectangle_239" data-name="Rectangle 239" width="188" height="14" rx="7" transform="translate(1329 3710)" fill="#5e537e"/>
    <rect id="Rectangle_241" data-name="Rectangle 241" width="282" height="14" rx="7" transform="translate(1329 3770)" fill="#5e537e"/>
    <rect id="Rectangle_234" data-name="Rectangle 234" width="39" height="14" rx="7" transform="translate(1329 3546)" fill="#c3bade"/>
    <rect id="Rectangle_236" data-name="Rectangle 236" width="39" height="14" rx="7" transform="translate(1329 3607)" fill="#c3bade"/>
    <rect id="Rectangle_238" data-name="Rectangle 238" width="39" height="14" rx="7" transform="translate(1329 3673)" fill="#c3bade"/>
    <rect id="Rectangle_240" data-name="Rectangle 240" width="39" height="14" rx="7" transform="translate(1329 3738)" fill="#c3bade"/>
    <rect id="Rectangle_242" data-name="Rectangle 242" width="39" height="14" rx="7" transform="translate(1329 3798)" fill="#c3bade"/>
    <g id="Ellipse_65" data-name="Ellipse 65" transform="translate(1303 3732)" fill="#4670fd" stroke="#4670fd" stroke-width="1" opacity="0.37">
      <circle cx="6" cy="6" r="6" stroke="none"/>
      <circle cx="6" cy="6" r="5.5" fill="none"/>
    </g>
    <g id="Polygon_4" data-name="Polygon 4" transform="translate(1286 3709.561)" fill="#fff" opacity="0.37">
      <path d="M 19.34930992126465 28.68902206420898 L 12.65069007873535 28.68902206420898 C 9.499899864196777 28.68902206420898 6.728909969329834 26.67567253112793 5.755420207977295 23.67905235290527 L 3.684410095214844 17.30406188964844 C 2.711100101470947 14.30802154541016 3.769370079040527 11.05084133148193 6.317759990692139 9.199001312255859 L 11.73808002471924 5.260251522064209 C 12.98495006561279 4.354191780090332 14.45870018005371 3.875271558761597 16 3.875271558761597 C 17.54129981994629 3.875271558761597 19.01505088806152 4.354191780090332 20.26192092895508 5.260251522064209 L 25.6822395324707 9.19901180267334 C 28.23063087463379 11.05084133148193 29.28890037536621 14.30802154541016 28.31558990478516 17.3040714263916 L 26.24457931518555 23.67904090881348 C 25.27108955383301 26.67567253112793 22.50009918212891 28.68902206420898 19.34930992126465 28.68902206420898 Z" stroke="none"/>
      <path d="M 16 5.625270843505859 C 14.83073043823242 5.625270843505859 13.71272087097168 5.988592147827148 12.76682090759277 6.675941467285156 L 7.346500396728516 10.61470222473145 C 5.413240432739258 12.01954078674316 4.610410690307617 14.49050140380859 5.348779678344727 16.76336288452148 L 7.419790267944336 23.13835144042969 C 8.158300399780273 25.41165161132813 10.26044082641602 26.93902206420898 12.65069007873535 26.93902206420898 L 19.34930992126465 26.93902206420898 C 21.73955917358398 26.93902206420898 23.84169960021973 25.41165161132813 24.58020973205566 23.13835144042969 L 26.65121078491211 16.76337051391602 C 27.38957977294922 14.49050140380859 26.58675956726074 12.01954078674316 24.65349960327148 10.61470222473145 L 19.23318099975586 6.675941467285156 C 18.28728103637695 5.988592147827148 17.16926956176758 5.625270843505859 16 5.625270843505859 M 16 2.125274658203125 C 17.85667037963867 2.125274658203125 19.71334075927734 2.698366165161133 21.2906608581543 3.844551086425781 L 26.71097946166992 7.78331184387207 C 29.86482048034668 10.07511138916016 31.18450927734375 14.13691139221191 29.97995948791504 17.84476089477539 L 27.90896034240723 24.21974182128906 C 26.7042293548584 27.92817115783691 23.24851989746094 30.43902206420898 19.34930992126465 30.43902206420898 L 12.65069007873535 30.43902206420898 C 8.751480102539063 30.43902206420898 5.295770645141602 27.92817115783691 4.091039657592773 24.21974182128906 L 2.020029067993164 17.84476089477539 C 0.81549072265625 14.13691139221191 2.135169982910156 10.07511138916016 5.289020538330078 7.78331184387207 L 10.7093391418457 3.844551086425781 C 12.28665924072266 2.698366165161133 14.14332962036133 2.125274658203125 16 2.125274658203125 Z" stroke="none" fill="#4670fd"/>
    </g>
    <g id="Ellipse_66" data-name="Ellipse 66" transform="translate(1303 3796)" fill="#4670fd" stroke="#4670fd" stroke-width="1" opacity="0.37">
      <circle cx="6" cy="6" r="6" stroke="none"/>
      <circle cx="6" cy="6" r="5.5" fill="none"/>
    </g>
    <g id="Polygon_5" data-name="Polygon 5" transform="translate(1286 3773.561)" fill="#fff" opacity="0.37">
      <path d="M 19.34930992126465 28.68902206420898 L 12.65069007873535 28.68902206420898 C 9.499899864196777 28.68902206420898 6.728909969329834 26.67567253112793 5.755420207977295 23.67905235290527 L 3.684410095214844 17.30406188964844 C 2.711100101470947 14.30802154541016 3.769370079040527 11.05084133148193 6.317759990692139 9.199001312255859 L 11.73808002471924 5.260251522064209 C 12.98495006561279 4.354191780090332 14.45870018005371 3.875271558761597 16 3.875271558761597 C 17.54129981994629 3.875271558761597 19.01505088806152 4.354191780090332 20.26192092895508 5.260251522064209 L 25.6822395324707 9.19901180267334 C 28.23063087463379 11.05084133148193 29.28890037536621 14.30802154541016 28.31558990478516 17.3040714263916 L 26.24457931518555 23.67904090881348 C 25.27108955383301 26.67567253112793 22.50009918212891 28.68902206420898 19.34930992126465 28.68902206420898 Z" stroke="none"/>
      <path d="M 16 5.625270843505859 C 14.83073043823242 5.625270843505859 13.71272087097168 5.988592147827148 12.76682090759277 6.675941467285156 L 7.346500396728516 10.61470222473145 C 5.413240432739258 12.01954078674316 4.610410690307617 14.49050140380859 5.348779678344727 16.76336288452148 L 7.419790267944336 23.13835144042969 C 8.158300399780273 25.41165161132813 10.26044082641602 26.93902206420898 12.65069007873535 26.93902206420898 L 19.34930992126465 26.93902206420898 C 21.73955917358398 26.93902206420898 23.84169960021973 25.41165161132813 24.58020973205566 23.13835144042969 L 26.65121078491211 16.76337051391602 C 27.38957977294922 14.49050140380859 26.58675956726074 12.01954078674316 24.65349960327148 10.61470222473145 L 19.23318099975586 6.675941467285156 C 18.28728103637695 5.988592147827148 17.16926956176758 5.625270843505859 16 5.625270843505859 M 16 2.125274658203125 C 17.85667037963867 2.125274658203125 19.71334075927734 2.698366165161133 21.2906608581543 3.844551086425781 L 26.71097946166992 7.78331184387207 C 29.86482048034668 10.07511138916016 31.18450927734375 14.13691139221191 29.97995948791504 17.84476089477539 L 27.90896034240723 24.21974182128906 C 26.7042293548584 27.92817115783691 23.24851989746094 30.43902206420898 19.34930992126465 30.43902206420898 L 12.65069007873535 30.43902206420898 C 8.751480102539063 30.43902206420898 5.295770645141602 27.92817115783691 4.091039657592773 24.21974182128906 L 2.020029067993164 17.84476089477539 C 0.81549072265625 14.13691139221191 2.135169982910156 10.07511138916016 5.289020538330078 7.78331184387207 L 10.7093391418457 3.844551086425781 C 12.28665924072266 2.698366165161133 14.14332962036133 2.125274658203125 16 2.125274658203125 Z" stroke="none" fill="#4670fd"/>
    </g>
    <g transform="matrix(1, 0, 0, 1, 927.5, 3380.5)" filter="url(#Rectangle_72)">
      <rect id="Rectangle_72-2" data-name="Rectangle 72" width="379" height="289" rx="10" transform="translate(49.5 27.5)" fill="#fff"/>
    </g>
    <g id="Rectangle_73" data-name="Rectangle 73" transform="translate(1004 3490)" fill="none" stroke="rgba(70,112,253,0.18)" stroke-width="1">
      <rect width="155" height="155" rx="10" stroke="none"/>
      <rect x="0.5" y="0.5" width="154" height="154" rx="9.5" fill="none"/>
    </g>
    <g id="Ellipse_67" data-name="Ellipse 67" transform="translate(1016 3511)" fill="#4670fd" stroke="#4670fd" stroke-width="1" opacity="0.37">
      <circle cx="6" cy="6" r="6" stroke="none"/>
      <circle cx="6" cy="6" r="5.5" fill="none"/>
    </g>
    <rect id="Rectangle_75" data-name="Rectangle 75" width="68" height="9" rx="4.5" transform="translate(1065 3616)" fill="rgba(70,112,253,0.12)"/>
    <g id="Rectangle_76" data-name="Rectangle 76" transform="translate(1178 3490)" fill="none" stroke="rgba(70,112,253,0.18)" stroke-width="1">
      <rect width="155" height="155" rx="10" stroke="none"/>
      <rect x="0.5" y="0.5" width="154" height="154" rx="9.5" fill="none"/>
    </g>
    <g id="Ellipse_68" data-name="Ellipse 68" transform="translate(1190 3511)" fill="#4670fd" stroke="#4670fd" stroke-width="1" opacity="0.37">
      <circle cx="6" cy="6" r="6" stroke="none"/>
      <circle cx="6" cy="6" r="5.5" fill="none"/>
    </g>
    <rect id="Rectangle_77" data-name="Rectangle 77" width="68" height="11" rx="5.5" transform="translate(1239 3617)" fill="rgba(70,112,253,0.12)"/>
    <rect id="Rectangle_225" data-name="Rectangle 225" width="98" height="7" rx="3.5" transform="translate(1035 3514)" fill="#5e537e"/>
    <rect id="Rectangle_226" data-name="Rectangle 226" width="98" height="7" rx="3.5" transform="translate(1209 3514)" fill="#5e537e"/>
    <rect id="Rectangle_227" data-name="Rectangle 227" width="60" height="7" rx="3.5" transform="translate(1191 3540)" fill="#d6cbf5"/>
    <rect id="Rectangle_228" data-name="Rectangle 228" width="60" height="7" rx="3.5" transform="translate(1191 3556)" fill="#d6cbf5"/>
    <rect id="Rectangle_229" data-name="Rectangle 229" width="60" height="7" rx="3.5" transform="translate(1191 3572)" fill="#d6cbf5"/>
    <rect id="Rectangle_230" data-name="Rectangle 230" width="60" height="7" rx="3.5" transform="translate(1016 3540)" fill="#d6cbf5"/>
    <rect id="Rectangle_231" data-name="Rectangle 231" width="60" height="7" rx="3.5" transform="translate(1016 3556)" fill="#d6cbf5"/>
    <rect id="Rectangle_232" data-name="Rectangle 232" width="60" height="7" rx="3.5" transform="translate(1016 3572)" fill="#d6cbf5"/>
  </g>
</svg>
