<svg xmlns="http://www.w3.org/2000/svg" width="1316" height="635" viewBox="0 0 1316 635">
  <g id="screensh0" transform="translate(-333 -2469)">
    <rect id="Rectangle_149" data-name="Rectangle 149" width="1316" height="635" rx="5" transform="translate(333 2469)" fill="#fff"/>
    <text id="Screenshot" transform="translate(976 2814)" fill="#f5f8ff" font-size="73" font-family="Gilroy-Bold, Gilroy ☞" font-weight="700"><tspan x="-190.165" y="0">Screenshot</tspan></text>
    <rect id="Rectangle_184" data-name="Rectangle 184" width="237" height="55" rx="5" transform="translate(382 2509)" fill="#e8eefc"/>
    <rect id="Rectangle_189" data-name="Rectangle 189" width="66" height="55" rx="5" transform="translate(382 2599)" fill="#f5f8ff"/>
    <rect id="Rectangle_190" data-name="Rectangle 190" width="66" height="55" rx="5" transform="translate(468 2599)" fill="#f5f8ff"/>
    <rect id="Rectangle_191" data-name="Rectangle 191" width="66" height="55" rx="5" transform="translate(554 2599)" fill="#f5f8ff"/>
    <rect id="Rectangle_209" data-name="Rectangle 209" width="142" height="12" rx="5" transform="translate(1410 2881)" fill="#f5f8ff"/>
    <rect id="Rectangle_210" data-name="Rectangle 210" width="119" height="12" rx="5" transform="translate(1269 2881)" fill="#f5f8ff"/>
    <rect id="Rectangle_211" data-name="Rectangle 211" width="142" height="12" rx="5" transform="translate(1268 2912)" fill="#f5f8ff"/>
    <rect id="Rectangle_212" data-name="Rectangle 212" width="142" height="12" rx="5" transform="translate(1435 2912)" fill="#f5f8ff"/>
    <rect id="Rectangle_213" data-name="Rectangle 213" width="142" height="12" rx="5" transform="translate(1410 2943)" fill="#f5f8ff"/>
    <rect id="Rectangle_214" data-name="Rectangle 214" width="119" height="12" rx="5" transform="translate(1269 2943)" fill="#f5f8ff"/>
    <rect id="Rectangle_215" data-name="Rectangle 215" width="142" height="12" rx="5" transform="translate(1268 2974)" fill="#f5f8ff"/>
    <rect id="Rectangle_216" data-name="Rectangle 216" width="142" height="12" rx="5" transform="translate(1435 2974)" fill="#f5f8ff"/>
    <rect id="Rectangle_217" data-name="Rectangle 217" width="142" height="12" rx="5" transform="translate(1410 3005)" fill="#f5f8ff"/>
    <rect id="Rectangle_218" data-name="Rectangle 218" width="119" height="12" rx="5" transform="translate(1269 3005)" fill="#f5f8ff"/>
    <rect id="Rectangle_219" data-name="Rectangle 219" width="142" height="12" rx="5" transform="translate(380 2862)" fill="#f5f8ff"/>
    <rect id="Rectangle_220" data-name="Rectangle 220" width="142" height="12" rx="5" transform="translate(477 2862)" fill="#f5f8ff"/>
    <rect id="Rectangle_221" data-name="Rectangle 221" width="142" height="12" rx="5" transform="translate(452 2931.5)" fill="#f5f8ff"/>
    <rect id="Rectangle_222" data-name="Rectangle 222" width="119" height="12" rx="5" transform="translate(381 2931.5)" fill="#f5f8ff"/>
    <rect id="Rectangle_223" data-name="Rectangle 223" width="142" height="12" rx="5" transform="translate(380 3001)" fill="#f5f8ff"/>
    <rect id="Rectangle_224" data-name="Rectangle 224" width="142" height="12" rx="5" transform="translate(477 3001)" fill="#f5f8ff"/>
    <rect id="Rectangle_243" data-name="Rectangle 243" width="66" height="55" rx="5" transform="translate(382 2689)" fill="#f5f8ff"/>
    <rect id="Rectangle_244" data-name="Rectangle 244" width="66" height="55" rx="5" transform="translate(468 2689)" fill="#f5f8ff"/>
    <rect id="Rectangle_245" data-name="Rectangle 245" width="66" height="55" rx="5" transform="translate(554 2689)" fill="#f5f8ff"/>
    <rect id="Rectangle_246" data-name="Rectangle 246" width="66" height="55" rx="5" transform="translate(382 2779)" fill="#f5f8ff"/>
    <rect id="Rectangle_247" data-name="Rectangle 247" width="66" height="55" rx="5" transform="translate(468 2779)" fill="#f5f8ff"/>
    <rect id="Rectangle_248" data-name="Rectangle 248" width="66" height="55" rx="5" transform="translate(554 2779)" fill="#f5f8ff"/>
    <rect id="Rectangle_249" data-name="Rectangle 249" width="237" height="55" rx="5" transform="translate(1346 2509)" fill="#e8eefc"/>
    <rect id="Rectangle_250" data-name="Rectangle 250" width="66" height="55" rx="5" transform="translate(1346 2599)" fill="#f5f8ff"/>
    <rect id="Rectangle_251" data-name="Rectangle 251" width="66" height="55" rx="5" transform="translate(1432 2599)" fill="#f5f8ff"/>
    <rect id="Rectangle_252" data-name="Rectangle 252" width="66" height="55" rx="5" transform="translate(1518 2599)" fill="#f5f8ff"/>
    <rect id="Rectangle_253" data-name="Rectangle 253" width="66" height="55" rx="5" transform="translate(1346 2689)" fill="#f5f8ff"/>
    <rect id="Rectangle_254" data-name="Rectangle 254" width="66" height="55" rx="5" transform="translate(1432 2689)" fill="#f5f8ff"/>
    <rect id="Rectangle_255" data-name="Rectangle 255" width="66" height="55" rx="5" transform="translate(1518 2689)" fill="#f5f8ff"/>
    <rect id="Rectangle_256" data-name="Rectangle 256" width="66" height="55" rx="5" transform="translate(1346 2779)" fill="#f5f8ff"/>
    <rect id="Rectangle_257" data-name="Rectangle 257" width="66" height="55" rx="5" transform="translate(1432 2779)" fill="#f5f8ff"/>
    <rect id="Rectangle_258" data-name="Rectangle 258" width="66" height="55" rx="5" transform="translate(1518 2779)" fill="#f5f8ff"/>
  </g>
</svg>
