<svg xmlns="http://www.w3.org/2000/svg" width="60.078" height="59" viewBox="0 0 60.078 59">
  <g id="two" transform="translate(-921.622 -521)">
    <path id="Path_246" data-name="Path 246" d="M1.62,0V-6.18L15.96-20.94q4.8-5.04,4.8-8.4a5.3,5.3,0,0,0-1.53-3.96,5.378,5.378,0,0,0-3.93-1.5q-4.74,0-7.02,4.92L1.32-33.96a14.672,14.672,0,0,1,5.7-6.6,15.318,15.318,0,0,1,8.16-2.28,14.35,14.35,0,0,1,9.78,3.57,12.147,12.147,0,0,1,4.08,9.63q-.01,6.53-6.892,13.416L13.91-7.98H29.7V0Z" transform="translate(952 580)" fill="#80e7ff"/>
    <g id="header-bg-right" transform="translate(891.622 521)">
      <g id="Layer_1-2" transform="translate(0 0)">
        <path id="Path_200" data-name="Path 200" d="M7.364,13.1h0a4.269,4.269,0,0,1-5.769.8h0a4.05,4.05,0,0,1-.8-5.609h0a4.05,4.05,0,0,1,5.609-.8h0A3.939,3.939,0,0,1,7.364,13.1Z" transform="translate(29.987 4.223)" fill="#80e7ff"/>
        <path id="Path_201" data-name="Path 201" d="M24.649,4.073a7.187,7.187,0,0,0-.16-1.763V2.15a1.476,1.476,0,0,0-1.763-1.122,7.053,7.053,0,0,1-1.6.321,2.731,2.731,0,0,1-1.6,0c-.16,0-.321-.16-.321-.481h0a.425.425,0,0,1,.481-.481,9.075,9.075,0,0,0,2.885-.481h.321A2.554,2.554,0,0,1,25.771,2.15a4.437,4.437,0,0,1,.16,1.442c.16,1.442.962,1.923,2.244,1.6.321,0,.481-.16.8-.321.321,0,.8-.16,1.122,0a2.531,2.531,0,0,1,2.564,2.885c.16,2.4.8,2.724,3.045,2.083a3.946,3.946,0,0,1,1.923-.16c.321,0,.641.16.641.481s-.321.481-.8.481a9.379,9.379,0,0,0-2.083.321,1.355,1.355,0,0,1-.962.321A2.741,2.741,0,0,1,31.7,8.4c-.321-2.4-.8-2.724-3.205-2.083a3.906,3.906,0,0,1-1.923,0A2.75,2.75,0,0,1,24.649,4.073Z" transform="translate(27.548 0.111)" fill="#80e7ff"/>
        <path id="Path_202" data-name="Path 202" d="M30.85,30.9,20.433,28.174c-1.122-.321-1.122-.481-.321-1.282l7.532-7.532.481-.481c.481-.321.641-.321.8.321,0,.16.16.321.16.481.962,3.526,1.763,7.051,2.724,10.577,0,.321.16.481,0,.8A.9.9,0,0,1,30.85,30.9Z" transform="translate(27.757 11.427)" fill="#a9a9a9" opacity="0.15"/>
      </g>
    </g>
  </g>
</svg>
