<svg xmlns="http://www.w3.org/2000/svg" width="108.297" height="87.511" viewBox="0 0 108.297 87.511">
  <g id="typography" transform="translate(-417.369 -1334.489)">
    <path id="Path_238" data-name="Path 238" d="M63.565,9.174,58.176-6.086H23.352L18.266,9.174H.221L29.892-75.6H50.6L80.508,9.174ZM28.8-21.708h23.86L40.422-56.344Z" transform="translate(417.148 1410.089)" fill="#80e7ff"/>
    <path id="Path_239" data-name="Path 239" d="M57.67-3.653A30.644,30.644,0,0,1,35.221,5.482a30.446,30.446,0,0,1-22.39-9.135A30.446,30.446,0,0,1,3.7-26.043a30.446,30.446,0,0,1,9.135-22.39,30.446,30.446,0,0,1,22.39-9.135A30.644,30.644,0,0,1,57.67-48.433a30.345,30.345,0,0,1,9.195,22.39A30.345,30.345,0,0,1,57.67-3.653ZM23.7-14.221A15.526,15.526,0,0,0,35.221-9.564,15.724,15.724,0,0,0,46.8-14.221a16.017,16.017,0,0,0,4.657-11.822A16.017,16.017,0,0,0,46.8-37.865a15.724,15.724,0,0,0-11.583-4.657A15.526,15.526,0,0,0,23.7-37.865a16.128,16.128,0,0,0-4.6,11.822A16.128,16.128,0,0,0,23.7-14.221Z" transform="translate(458.801 1416.518)" fill="#4670fd"/>
  </g>
</svg>
