<svg id="box-blue" xmlns="http://www.w3.org/2000/svg" width="101.674" height="16.946" viewBox="0 0 101.674 16.946">
  <g id="Слой_1" data-name="Слой 1">
    <circle id="Ellipse_7" data-name="Ellipse 7" cx="1.412" cy="1.412" r="1.412" fill="#4670fd"/>
    <circle id="Ellipse_8" data-name="Ellipse 8" cx="1.412" cy="1.412" r="1.412" transform="translate(14.121)" fill="#4670fd"/>
    <circle id="Ellipse_9" data-name="Ellipse 9" cx="1.412" cy="1.412" r="1.412" transform="translate(28.243)" fill="#4670fd"/>
    <circle id="Ellipse_10" data-name="Ellipse 10" cx="1.412" cy="1.412" r="1.412" transform="translate(42.364)" fill="#4670fd"/>
    <circle id="Ellipse_11" data-name="Ellipse 11" cx="1.412" cy="1.412" r="1.412" transform="translate(56.485)" fill="#4670fd"/>
    <circle id="Ellipse_12" data-name="Ellipse 12" cx="1.412" cy="1.412" r="1.412" transform="translate(70.607)" fill="#4670fd"/>
    <circle id="Ellipse_13" data-name="Ellipse 13" cx="1.412" cy="1.412" r="1.412" transform="translate(84.728)" fill="#4670fd"/>
    <circle id="Ellipse_14" data-name="Ellipse 14" cx="1.412" cy="1.412" r="1.412" transform="translate(98.85)" fill="#4670fd"/>
    <circle id="Ellipse_15" data-name="Ellipse 15" cx="1.412" cy="1.412" r="1.412" transform="translate(0 14.121)" fill="#4670fd"/>
    <circle id="Ellipse_16" data-name="Ellipse 16" cx="1.412" cy="1.412" r="1.412" transform="translate(14.121 14.121)" fill="#4670fd"/>
    <circle id="Ellipse_17" data-name="Ellipse 17" cx="1.412" cy="1.412" r="1.412" transform="translate(28.243 14.121)" fill="#4670fd"/>
    <circle id="Ellipse_18" data-name="Ellipse 18" cx="1.412" cy="1.412" r="1.412" transform="translate(42.364 14.121)" fill="#4670fd"/>
    <circle id="Ellipse_19" data-name="Ellipse 19" cx="1.412" cy="1.412" r="1.412" transform="translate(56.485 14.121)" fill="#4670fd"/>
    <circle id="Ellipse_20" data-name="Ellipse 20" cx="1.412" cy="1.412" r="1.412" transform="translate(70.607 14.121)" fill="#4670fd"/>
    <circle id="Ellipse_21" data-name="Ellipse 21" cx="1.412" cy="1.412" r="1.412" transform="translate(84.728 14.121)" fill="#4670fd"/>
    <circle id="Ellipse_22" data-name="Ellipse 22" cx="1.412" cy="1.412" r="1.412" transform="translate(98.85 14.121)" fill="#4670fd"/>
  </g>
</svg>
