<svg xmlns="http://www.w3.org/2000/svg" xmlns:xlink="http://www.w3.org/1999/xlink" width="26.181" height="26" viewBox="0 0 26.181 26">
  <defs>
    <linearGradient id="linear-gradient" x1="424.16" y1="-342.215" x2="420.444" y2="-342.215" gradientUnits="objectBoundingBox">
      <stop offset="0" stop-color="#fc636b"/>
      <stop offset="1" stop-color="#f94b4b"/>
    </linearGradient>
    <linearGradient id="linear-gradient-2" x1="64.972" y1="-344.289" x2="61.919" y2="-344.289" gradientUnits="objectBoundingBox">
      <stop offset="0" stop-color="#f79d1e"/>
      <stop offset="1" stop-color="#ef4d4e"/>
    </linearGradient>
  </defs>
  <g id="list" transform="translate(-25 -4)">
    <g id="Layer_1-2" transform="translate(25 4)">
      <path id="Path_199" data-name="Path 199" d="M46.919,12.877a1.89,1.89,0,0,1,.352,1.055c.469,2.11,1.055,4.219,1.524,6.329.234.82.234.938,1.055.7,1.875-.469,3.75-1.055,5.626-1.641.82-.234.82-.352.586-1.172a7.631,7.631,0,0,0-5.626-5.626,10.084,10.084,0,0,0-3.75,0v.352Z" transform="translate(-46.685 -1.402)" fill="url(#linear-gradient)"/>
      <path id="Path_200" data-name="Path 200" d="M.576,11.386h0a3.122,3.122,0,0,0,4.219.586h0a2.962,2.962,0,0,0,.586-4.1h0a2.962,2.962,0,0,0-4.1-.586h0A2.881,2.881,0,0,0,.576,11.386Z" transform="translate(20.23 1.285)" fill="#5cd5c4"/>
      <path id="Path_201" data-name="Path 201" d="M29.162,2.949a5.256,5.256,0,0,1,.117-1.289V1.543a1.08,1.08,0,0,1,1.289-.82A5.158,5.158,0,0,0,31.74.957a2,2,0,0,0,1.172,0c.117,0,.234-.117.234-.352h0A.311.311,0,0,0,32.8.253,6.636,6.636,0,0,1,30.686-.1h-.234a1.868,1.868,0,0,0-2.11,1.641A3.245,3.245,0,0,0,28.224,2.6c-.117,1.055-.7,1.406-1.641,1.172-.234,0-.352-.117-.586-.234-.234,0-.586-.117-.82,0A1.851,1.851,0,0,0,23.3,5.645c-.117,1.758-.586,1.992-2.227,1.524a2.886,2.886,0,0,0-1.406-.117c-.234,0-.469.117-.469.352s.234.352.586.352a6.859,6.859,0,0,1,1.524.234.991.991,0,0,0,.7.234,2,2,0,0,0,1.992-2.11c.234-1.758.586-1.992,2.344-1.524a2.857,2.857,0,0,0,1.406,0A2.011,2.011,0,0,0,29.162,2.949Z" transform="translate(-9.707 0.111)" fill="url(#linear-gradient-2)"/>
      <path id="Path_202" data-name="Path 202" d="M20.3,27.613,27.92,25.62c.82-.234.82-.352.234-.938l-5.508-5.508-.352-.352c-.352-.234-.469-.234-.586.234,0,.117-.117.234-.117.352-.7,2.578-1.289,5.157-1.992,7.735,0,.234-.117.352,0,.586A.657.657,0,0,0,20.3,27.613Z" transform="translate(-7.729 -1.778)" fill="#a9a9a9" opacity="0.15"/>
    </g>
  </g>
</svg>
