<svg xmlns="http://www.w3.org/2000/svg" xmlns:xlink="http://www.w3.org/1999/xlink" width="183.066" height="79.06" viewBox="0 0 183.066 79.06">
  <defs>
    <linearGradient id="linear-gradient" x1="0.665" y1="0.519" x2="0.595" y2="1" gradientUnits="objectBoundingBox">
      <stop offset="0" stop-color="#fff"/>
      <stop offset="1" stop-color="#e8fbff"/>
    </linearGradient>
  </defs>
  <g id="logo" transform="translate(-152 -35)">
    <g id="favicon" transform="translate(152 35)">
      <g id="Group_1" data-name="Group 1">
        <path id="Path_192" data-name="Path 192" d="M39.53,0A39.53,39.53,0,1,1,0,39.53,39.53,39.53,0,0,1,39.53,0Z" fill="#4670fd"/>
        <path id="Subtraction_1" data-name="Subtraction 1" d="M16.707,33.414a6.406,6.406,0,0,1-4.559-1.889L1.889,21.266a6.448,6.448,0,0,1,0-9.119L12.147,1.889a6.448,6.448,0,0,1,9.119,0l3.965,3.965-6.489,6.489a6.455,6.455,0,0,0,0,9.119l6.294,6.294-3.77,3.769A6.406,6.406,0,0,1,16.707,33.414Z" transform="translate(16.627 23.325)" fill="url(#linear-gradient)"/>
        <path id="Path_150" data-name="Path 150" d="M6.448,0H16.12a6.448,6.448,0,0,1,6.448,6.448V16.12a6.448,6.448,0,0,1-6.448,6.448H6.448A6.448,6.448,0,0,1,0,16.12V6.448A6.448,6.448,0,0,1,6.448,0Z" transform="translate(46.768 24.269) rotate(45)" fill="#80e7ff"/>
      </g>
    </g>
    <path id="Path_190" data-name="Path 190" d="M20.812-2.964c-2.564-.306-4.325-3.77-8.4-6.372,4.286-3.176,6.659-4.975,6.659-6.353,0-1.32-1.378-2.143-4.171-2.813-.459,1.665-2.813,4.325-6.965,8.286,0-7.654.459-12.17.459-13.605,0-2.181-.67-3.023-2.641-3.023a10.2,10.2,0,0,0-4.325,1.072c.861,1.626,1.014,4.726,1.014,9.338,0,6.583-.421,11.06-.421,13.509,0,2.239.593,3.062,2.622,3.062A9.666,9.666,0,0,0,8.872-.9C8.164-2.275,7.9-4.628,7.9-8.034c4.038,3.923,6.257,6.774,7.52,7.769a3.418,3.418,0,0,0,2.22.88C19.262.615,20.391-.648,20.812-2.964Zm22.2-6.544c0-5.3-4.095-9.2-10.008-9.2-6.353,0-10.831,4.21-10.831,9.893,0,5.473,4.133,9.4,10.2,9.4A10.343,10.343,0,0,0,40.7-3.117,9.962,9.962,0,0,0,43.012-9.508Zm-15,.555c0-3,1.933-4.956,4.631-4.956a4.421,4.421,0,0,1,4.612,4.765A4.6,4.6,0,0,1,32.641-4.3,4.394,4.394,0,0,1,28.01-8.953ZM65.022-2.964c-2.564-.306-4.325-3.77-8.4-6.372,4.286-3.176,6.659-4.975,6.659-6.353,0-1.32-1.378-2.143-4.171-2.813-.459,1.665-2.813,4.325-6.965,8.286,0-7.654.459-12.17.459-13.605,0-2.181-.67-3.023-2.641-3.023a10.2,10.2,0,0,0-4.325,1.072c.861,1.626,1.014,4.726,1.014,9.338,0,6.583-.421,11.06-.421,13.509,0,2.239.593,3.062,2.622,3.062A9.666,9.666,0,0,0,53.081-.9c-.708-1.378-.976-3.731-.976-7.137,4.038,3.923,6.257,6.774,7.52,7.769a3.418,3.418,0,0,0,2.22.88C63.472.615,64.6-.648,65.022-2.964Zm6.165-24.225a3.4,3.4,0,0,0-3.444,3.368,2.713,2.713,0,0,0,2.928,2.813,3.371,3.371,0,0,0,3.54-3.253A2.881,2.881,0,0,0,71.187-27.189ZM74.478-.9a15.539,15.539,0,0,1-.918-6.028c0-3.54.364-6.429.364-8.649,0-1.952-.785-2.775-2.66-2.775a9.751,9.751,0,0,0-4.325,1.033c.67,1.416.88,3.483.88,6.257,0,3.865-.325,6.678-.325,8.42,0,1.99.67,2.775,2.622,2.775A9.848,9.848,0,0,0,74.478-.9ZM85.425-17.506c.153-1.8.268-2.947.268-3.425,0-1.78-.823-2.564-2.6-2.564a9.078,9.078,0,0,0-3.942,1.052,9.084,9.084,0,0,1,.765,4.095c0,.325-.038.708-.038,1.072-.555.038-1.072.077-1.512.077a7.778,7.778,0,0,1-1.435-.115,5.565,5.565,0,0,0-.67,2.3c0,1.072.593,1.435,1.875,1.435a11.8,11.8,0,0,0,1.531-.115c-.115,3.33-.459,5.989-.459,8.037,0,4.018,1.818,5.989,5.588,5.989,3,0,4.669-1.11,4.669-2.775a3.322,3.322,0,0,0-.823-2.067,2.381,2.381,0,0,1-1.512.574c-1.512,0-2.22-1.32-2.22-4.095,0-1.665.115-3.617.287-5.8,1.3-.038,2.086-.115,2.258-.115a5.728,5.728,0,0,1,2.1.287,4.84,4.84,0,0,0,1.014-2.66c0-1.033-.536-1.4-1.7-1.4C88.315-17.717,87.167-17.6,85.425-17.506Z" transform="translate(244.493 85.425)" fill="#5e537e"/>
  </g>
</svg>
